# xmcd CD database file
#
# Track frame offsets:
#	200
#	39275
#	71900
#	117425
#	155750
#	197525
#	240500
#	248250
#	282125
#
# Disc length: 4174 seconds
#
# Revision: 0
# Processed by: cddbd v1.5.1PL0 Copyright (c) Steve Scherf et al.
# Submitted via: CDex 1.51
#
DISCID=73104c09
DTITLE=Nicolas Simion Trio - Back to the Roots
DYEAR=1997
DGENRE=Jazz
TTITLE0=Walking the fish
TTITLE1=Bella ragazza
TTITLE2=Transsylvanian dance
TTITLE3=Jenny's dream
TTITLE4=Mountain talk
TTITLE5=Unfinished column
TTITLE6=Prelude a l' unison
TTITLE7=Tales retold
TTITLE8=Happy house
EXTD=YEAR: 1997
EXTT0=
EXTT1=
EXTT2=
EXTT3=
EXTT4=
EXTT5=
EXTT6=
EXTT7=
EXTT8=
PLAYORDER=
